<?xml version="1.0" encoding="UTF-8" standalone="no"?>
<!-- Created with Inkscape (http://www.inkscape.org/) -->

<svg
   xmlns:dc="http://purl.org/dc/elements/1.1/"
   xmlns:cc="http://creativecommons.org/ns#"
   xmlns:rdf="http://www.w3.org/1999/02/22-rdf-syntax-ns#"
   xmlns:svg="http://www.w3.org/2000/svg"
   xmlns="http://www.w3.org/2000/svg"
   xmlns:sodipodi="http://sodipodi.sourceforge.net/DTD/sodipodi-0.dtd"
   xmlns:inkscape="http://www.inkscape.org/namespaces/inkscape"
   id="svg7362"
   version="1.1"
   inkscape:version="0.91 r13725"
   xml:space="preserve"
   width="450"
   height="270"
   viewBox="0 0 450 270"
   sodipodi:docname="c4_entropies.svg"><metadata
     id="metadata7368"><rdf:RDF><cc:Work
         rdf:about=""><dc:format>image/svg+xml</dc:format><dc:type
           rdf:resource="http://purl.org/dc/dcmitype/StillImage" /></cc:Work></rdf:RDF></metadata><defs
     id="defs7366" /><sodipodi:namedview
     pagecolor="#ffffff"
     bordercolor="#666666"
     borderopacity="1"
     objecttolerance="10"
     gridtolerance="10"
     guidetolerance="10"
     inkscape:pageopacity="0"
     inkscape:pageshadow="2"
     inkscape:window-width="1920"
     inkscape:window-height="1017"
     id="namedview7364"
     showgrid="false"
     inkscape:zoom="2.9244443"
     inkscape:cx="63.370637"
     inkscape:cy="169.71555"
     inkscape:window-x="1912"
     inkscape:window-y="-8"
     inkscape:window-maximized="1"
     inkscape:current-layer="g7370" /><g
     id="g7370"
     inkscape:groupmode="layer"
     inkscape:label="c4_entropies"
     transform="matrix(1.25,0,0,-1.25,0,270)"><g
       transform="matrix(1,0,0,-1,0,216)"
       id="g7374"><path
         inkscape:connector-curvature="0"
         id="path7376"
         style="fill:none;stroke:#000000;stroke-width:0.5;stroke-linecap:butt;stroke-linejoin:miter;stroke-miterlimit:3.79999995;stroke-dasharray:0.2, 2;stroke-dashoffset:0;stroke-opacity:1"
         d="m 42.949,186.75 302.199,0" /></g><g
       transform="matrix(1,0,0,-1,0,216)"
       id="g7378"><path
         inkscape:connector-curvature="0"
         id="path7380"
         style="fill:none;stroke:#000000;stroke-width:0.5;stroke-linecap:butt;stroke-linejoin:miter;stroke-miterlimit:3.79999995;stroke-dasharray:none;stroke-opacity:1"
         d="m 42.949,186.75 3.699,0" /></g><g
       transform="matrix(1,0,0,-1,0,216)"
       id="g7382"><path
         inkscape:connector-curvature="0"
         id="path7384"
         style="fill:none;stroke:#000000;stroke-width:0.5;stroke-linecap:butt;stroke-linejoin:miter;stroke-miterlimit:3.79999995;stroke-dasharray:none;stroke-opacity:1"
         d="m 345.148,186.75 -3.699,0" /></g><text
       id="text7386"
       style="font-variant:normal;font-weight:normal;font-size:8px;font-family:'DejaVu Sans';-inkscape-font-specification:DejaVuSans;writing-mode:lr-tb;fill:#000000;fill-opacity:1;fill-rule:nonzero;stroke:none"
       transform="scale(1,-1)"
       x="32.727406"
       y="-26.25"><tspan
         id="tspan7388"
         y="-26.25"
         x="32.727406">4</tspan></text>
<g
       transform="matrix(1,0,0,-1,0,216)"
       id="g7390"><path
         inkscape:connector-curvature="0"
         id="path7392"
         style="fill:none;stroke:#000000;stroke-width:0.5;stroke-linecap:butt;stroke-linejoin:miter;stroke-miterlimit:3.79999995;stroke-dasharray:0.2, 2;stroke-dashoffset:0;stroke-opacity:1"
         d="m 42.949,164.75 302.199,0" /></g><g
       transform="matrix(1,0,0,-1,0,216)"
       id="g7394"><path
         inkscape:connector-curvature="0"
         id="path7396"
         style="fill:none;stroke:#000000;stroke-width:0.5;stroke-linecap:butt;stroke-linejoin:miter;stroke-miterlimit:3.79999995;stroke-dasharray:none;stroke-opacity:1"
         d="m 42.949,164.75 3.699,0" /></g><g
       transform="matrix(1,0,0,-1,0,216)"
       id="g7398"><path
         inkscape:connector-curvature="0"
         id="path7400"
         style="fill:none;stroke:#000000;stroke-width:0.5;stroke-linecap:butt;stroke-linejoin:miter;stroke-miterlimit:3.79999995;stroke-dasharray:none;stroke-opacity:1"
         d="m 345.148,164.75 -3.699,0" /></g><text
       id="text7402"
       style="font-variant:normal;font-weight:normal;font-size:8px;font-family:'DejaVu Sans';-inkscape-font-specification:DejaVuSans;writing-mode:lr-tb;fill:#000000;fill-opacity:1;fill-rule:nonzero;stroke:none"
       transform="scale(1,-1)"
       x="25.094593"
       y="-48.25"><tspan
         id="tspan7404"
         sodipodi:role="line"
         y="-48.25"
         x="25.094593 30.182594 32.718594">4.1</tspan></text>
<g
       transform="matrix(1,0,0,-1,0,216)"
       id="g7406"><path
         inkscape:connector-curvature="0"
         id="path7408"
         style="fill:none;stroke:#000000;stroke-width:0.5;stroke-linecap:butt;stroke-linejoin:miter;stroke-miterlimit:3.79999995;stroke-dasharray:0.2, 2;stroke-dashoffset:0;stroke-opacity:1"
         d="m 42.949,142.75 302.199,0" /></g><g
       transform="matrix(1,0,0,-1,0,216)"
       id="g7410"><path
         inkscape:connector-curvature="0"
         id="path7412"
         style="fill:none;stroke:#000000;stroke-width:0.5;stroke-linecap:butt;stroke-linejoin:miter;stroke-miterlimit:3.79999995;stroke-dasharray:none;stroke-opacity:1"
         d="m 42.949,142.75 3.699,0" /></g><g
       transform="matrix(1,0,0,-1,0,216)"
       id="g7414"><path
         inkscape:connector-curvature="0"
         id="path7416"
         style="fill:none;stroke:#000000;stroke-width:0.5;stroke-linecap:butt;stroke-linejoin:miter;stroke-miterlimit:3.79999995;stroke-dasharray:none;stroke-opacity:1"
         d="m 345.148,142.75 -3.699,0" /></g><text
       id="text7418"
       style="font-variant:normal;font-weight:normal;font-size:8px;font-family:'DejaVu Sans';-inkscape-font-specification:DejaVuSans;writing-mode:lr-tb;fill:#000000;fill-opacity:1;fill-rule:nonzero;stroke:none"
       transform="scale(1,-1)"
       x="25.094593"
       y="-70.25"><tspan
         id="tspan7420"
         sodipodi:role="line"
         y="-70.25"
         x="25.094593 30.182594 32.718594">4.2</tspan></text>
<g
       transform="matrix(1,0,0,-1,0,216)"
       id="g7422"><path
         inkscape:connector-curvature="0"
         id="path7424"
         style="fill:none;stroke:#000000;stroke-width:0.5;stroke-linecap:butt;stroke-linejoin:miter;stroke-miterlimit:3.79999995;stroke-dasharray:0.2, 2;stroke-dashoffset:0;stroke-opacity:1"
         d="m 42.949,120.75 302.199,0" /></g><g
       transform="matrix(1,0,0,-1,0,216)"
       id="g7426"><path
         inkscape:connector-curvature="0"
         id="path7428"
         style="fill:none;stroke:#000000;stroke-width:0.5;stroke-linecap:butt;stroke-linejoin:miter;stroke-miterlimit:3.79999995;stroke-dasharray:none;stroke-opacity:1"
         d="m 42.949,120.75 3.699,0" /></g><g
       transform="matrix(1,0,0,-1,0,216)"
       id="g7430"><path
         inkscape:connector-curvature="0"
         id="path7432"
         style="fill:none;stroke:#000000;stroke-width:0.5;stroke-linecap:butt;stroke-linejoin:miter;stroke-miterlimit:3.79999995;stroke-dasharray:none;stroke-opacity:1"
         d="m 345.148,120.75 -3.699,0" /></g><text
       id="text7434"
       style="font-variant:normal;font-weight:normal;font-size:8px;font-family:'DejaVu Sans';-inkscape-font-specification:DejaVuSans;writing-mode:lr-tb;fill:#000000;fill-opacity:1;fill-rule:nonzero;stroke:none"
       transform="scale(1,-1)"
       x="25.094593"
       y="-92.25"><tspan
         id="tspan7436"
         sodipodi:role="line"
         y="-92.25"
         x="25.094593 30.182594 32.718594">4.3</tspan></text>
<g
       transform="matrix(1,0,0,-1,0,216)"
       id="g7438"><path
         inkscape:connector-curvature="0"
         id="path7440"
         style="fill:none;stroke:#000000;stroke-width:0.5;stroke-linecap:butt;stroke-linejoin:miter;stroke-miterlimit:3.79999995;stroke-dasharray:0.2, 2;stroke-dashoffset:0;stroke-opacity:1"
         d="m 42.949,98.75 302.199,0" /></g><g
       transform="matrix(1,0,0,-1,0,216)"
       id="g7442"><path
         inkscape:connector-curvature="0"
         id="path7444"
         style="fill:none;stroke:#000000;stroke-width:0.5;stroke-linecap:butt;stroke-linejoin:miter;stroke-miterlimit:3.79999995;stroke-dasharray:none;stroke-opacity:1"
         d="m 42.949,98.75 3.699,0" /></g><g
       transform="matrix(1,0,0,-1,0,216)"
       id="g7446"><path
         inkscape:connector-curvature="0"
         id="path7448"
         style="fill:none;stroke:#000000;stroke-width:0.5;stroke-linecap:butt;stroke-linejoin:miter;stroke-miterlimit:3.79999995;stroke-dasharray:none;stroke-opacity:1"
         d="m 345.148,98.75 -3.699,0" /></g><text
       id="text7450"
       style="font-variant:normal;font-weight:normal;font-size:8px;font-family:'DejaVu Sans';-inkscape-font-specification:DejaVuSans;writing-mode:lr-tb;fill:#000000;fill-opacity:1;fill-rule:nonzero;stroke:none"
       transform="scale(1,-1)"
       x="25.094593"
       y="-114.25"><tspan
         id="tspan7452"
         sodipodi:role="line"
         y="-114.25"
         x="25.094593 30.182594 32.718594">4.4</tspan></text>
<g
       transform="matrix(1,0,0,-1,0,216)"
       id="g7454"><path
         inkscape:connector-curvature="0"
         id="path7456"
         style="fill:none;stroke:#000000;stroke-width:0.5;stroke-linecap:butt;stroke-linejoin:miter;stroke-miterlimit:3.79999995;stroke-dasharray:0.2, 2;stroke-dashoffset:0;stroke-opacity:1"
         d="m 42.949,76.75 302.199,0" /></g><g
       transform="matrix(1,0,0,-1,0,216)"
       id="g7458"><path
         inkscape:connector-curvature="0"
         id="path7460"
         style="fill:none;stroke:#000000;stroke-width:0.5;stroke-linecap:butt;stroke-linejoin:miter;stroke-miterlimit:3.79999995;stroke-dasharray:none;stroke-opacity:1"
         d="m 42.949,76.75 3.699,0" /></g><g
       transform="matrix(1,0,0,-1,0,216)"
       id="g7462"><path
         inkscape:connector-curvature="0"
         id="path7464"
         style="fill:none;stroke:#000000;stroke-width:0.5;stroke-linecap:butt;stroke-linejoin:miter;stroke-miterlimit:3.79999995;stroke-dasharray:none;stroke-opacity:1"
         d="m 345.148,76.75 -3.699,0" /></g><text
       id="text7466"
       style="font-variant:normal;font-weight:normal;font-size:8px;font-family:'DejaVu Sans';-inkscape-font-specification:DejaVuSans;writing-mode:lr-tb;fill:#000000;fill-opacity:1;fill-rule:nonzero;stroke:none"
       transform="scale(1,-1)"
       x="25.094593"
       y="-136.25"><tspan
         id="tspan7468"
         sodipodi:role="line"
         y="-136.25"
         x="25.094593 30.182594 32.718594">4.5</tspan></text>
<g
       transform="matrix(1,0,0,-1,0,216)"
       id="g7470"><path
         inkscape:connector-curvature="0"
         id="path7472"
         style="fill:none;stroke:#000000;stroke-width:0.5;stroke-linecap:butt;stroke-linejoin:miter;stroke-miterlimit:3.79999995;stroke-dasharray:0.2, 2;stroke-dashoffset:0;stroke-opacity:1"
         d="m 42.949,54.75 302.199,0" /></g><g
       transform="matrix(1,0,0,-1,0,216)"
       id="g7474"><path
         inkscape:connector-curvature="0"
         id="path7476"
         style="fill:none;stroke:#000000;stroke-width:0.5;stroke-linecap:butt;stroke-linejoin:miter;stroke-miterlimit:3.79999995;stroke-dasharray:none;stroke-opacity:1"
         d="m 42.949,54.75 3.699,0" /></g><g
       transform="matrix(1,0,0,-1,0,216)"
       id="g7478"><path
         inkscape:connector-curvature="0"
         id="path7480"
         style="fill:none;stroke:#000000;stroke-width:0.5;stroke-linecap:butt;stroke-linejoin:miter;stroke-miterlimit:3.79999995;stroke-dasharray:none;stroke-opacity:1"
         d="m 345.148,54.75 -3.699,0" /></g><text
       id="text7482"
       style="font-variant:normal;font-weight:normal;font-size:8px;font-family:'DejaVu Sans';-inkscape-font-specification:DejaVuSans;writing-mode:lr-tb;fill:#000000;fill-opacity:1;fill-rule:nonzero;stroke:none"
       transform="scale(1,-1)"
       x="25.094593"
       y="-158.25"><tspan
         id="tspan7484"
         sodipodi:role="line"
         y="-158.25"
         x="25.094593 30.182594 32.718594">4.6</tspan></text>
<g
       transform="matrix(1,0,0,-1,0,216)"
       id="g7486"><path
         inkscape:connector-curvature="0"
         id="path7488"
         style="fill:none;stroke:#000000;stroke-width:0.5;stroke-linecap:butt;stroke-linejoin:miter;stroke-miterlimit:3.79999995;stroke-dasharray:0.2, 2;stroke-dashoffset:0;stroke-opacity:1"
         d="m 42.949,32.75 5.102,0" /></g><g
       transform="matrix(1,0,0,-1,0,216)"
       id="g7490"><path
         inkscape:connector-curvature="0"
         id="path7492"
         style="fill:none;stroke:#000000;stroke-width:0.5;stroke-linecap:butt;stroke-linejoin:miter;stroke-miterlimit:3.79999995;stroke-dasharray:0.2, 2;stroke-dashoffset:0;stroke-opacity:1"
         d="m 143.551,32.75 201.597,0" /></g><g
       transform="matrix(1,0,0,-1,0,216)"
       id="g7494"><path
         inkscape:connector-curvature="0"
         id="path7496"
         style="fill:none;stroke:#000000;stroke-width:0.5;stroke-linecap:butt;stroke-linejoin:miter;stroke-miterlimit:3.79999995;stroke-dasharray:none;stroke-opacity:1"
         d="m 42.949,32.75 3.699,0" /></g><g
       transform="matrix(1,0,0,-1,0,216)"
       id="g7498"><path
         inkscape:connector-curvature="0"
         id="path7500"
         style="fill:none;stroke:#000000;stroke-width:0.5;stroke-linecap:butt;stroke-linejoin:miter;stroke-miterlimit:3.79999995;stroke-dasharray:none;stroke-opacity:1"
         d="m 345.148,32.75 -3.699,0" /></g><text
       id="text7502"
       style="font-variant:normal;font-weight:normal;font-size:8px;font-family:'DejaVu Sans';-inkscape-font-specification:DejaVuSans;writing-mode:lr-tb;fill:#000000;fill-opacity:1;fill-rule:nonzero;stroke:none"
       transform="scale(1,-1)"
       x="25.094593"
       y="-180.25"><tspan
         id="tspan7504"
         sodipodi:role="line"
         y="-180.25"
         x="25.094593 30.182594 32.718594">4.7</tspan></text>
<g
       transform="matrix(1,0,0,-1,0,216)"
       id="g7506"><path
         inkscape:connector-curvature="0"
         id="path7508"
         style="fill:none;stroke:#000000;stroke-width:0.5;stroke-linecap:butt;stroke-linejoin:miter;stroke-miterlimit:3.79999995;stroke-dasharray:0.2, 2;stroke-dashoffset:0;stroke-opacity:1"
         d="m 42.949,10.75 302.199,0" /></g><g
       transform="matrix(1,0,0,-1,0,216)"
       id="g7510"><path
         inkscape:connector-curvature="0"
         id="path7512"
         style="fill:none;stroke:#000000;stroke-width:0.5;stroke-linecap:butt;stroke-linejoin:miter;stroke-miterlimit:3.79999995;stroke-dasharray:none;stroke-opacity:1"
         d="m 42.949,10.75 3.699,0" /></g><g
       transform="matrix(1,0,0,-1,0,216)"
       id="g7514"><path
         inkscape:connector-curvature="0"
         id="path7516"
         style="fill:none;stroke:#000000;stroke-width:0.5;stroke-linecap:butt;stroke-linejoin:miter;stroke-miterlimit:3.79999995;stroke-dasharray:none;stroke-opacity:1"
         d="m 345.148,10.75 -3.699,0" /></g><text
       id="text7518"
       style="font-variant:normal;font-weight:normal;font-size:8px;font-family:'DejaVu Sans';-inkscape-font-specification:DejaVuSans;writing-mode:lr-tb;fill:#000000;fill-opacity:1;fill-rule:nonzero;stroke:none"
       transform="scale(1,-1)"
       x="25.094593"
       y="-202.25"><tspan
         id="tspan7520"
         sodipodi:role="line"
         y="-202.25"
         x="25.094593 30.182594 32.718594">4.8</tspan></text>
<g
       transform="matrix(1,0,0,-1,0,216)"
       id="g7522"><path
         inkscape:connector-curvature="0"
         id="path7524"
         style="fill:none;stroke:#000000;stroke-width:0.5;stroke-linecap:butt;stroke-linejoin:miter;stroke-miterlimit:3.79999995;stroke-dasharray:0.2, 2;stroke-dashoffset:0;stroke-opacity:1"
         d="m 42.949,186.75 0,-176" /></g><g
       transform="matrix(1,0,0,-1,0,216)"
       id="g7526"><path
         inkscape:connector-curvature="0"
         id="path7528"
         style="fill:none;stroke:#000000;stroke-width:0.5;stroke-linecap:butt;stroke-linejoin:miter;stroke-miterlimit:3.79999995;stroke-dasharray:none;stroke-opacity:1"
         d="m 42.949,186.75 0,-3.699" /></g><g
       transform="matrix(1,0,0,-1,0,216)"
       id="g7530"><path
         inkscape:connector-curvature="0"
         id="path7532"
         style="fill:none;stroke:#000000;stroke-width:0.5;stroke-linecap:butt;stroke-linejoin:miter;stroke-miterlimit:3.79999995;stroke-dasharray:none;stroke-opacity:1"
         d="m 42.949,10.75 0,3.699" /></g><text
       id="text7534"
       style="font-variant:normal;font-weight:normal;font-size:8px;font-family:'DejaVu Sans';-inkscape-font-specification:DejaVuSans;writing-mode:lr-tb;fill:#000000;fill-opacity:1;fill-rule:nonzero;stroke:none"
       transform="scale(1,-1)"
       x="41.645374"
       y="-16.949219"><tspan
         id="tspan7536"
         y="-16.949219"
         x="41.645374">0</tspan></text>
<g
       transform="matrix(1,0,0,-1,0,216)"
       id="g7538"><path
         inkscape:connector-curvature="0"
         id="path7540"
         style="fill:none;stroke:#000000;stroke-width:0.5;stroke-linecap:butt;stroke-linejoin:miter;stroke-miterlimit:3.79999995;stroke-dasharray:0.2, 2;stroke-dashoffset:0;stroke-opacity:1"
         d="m 76.551,186.75 0,-153.699" /></g><g
       transform="matrix(1,0,0,-1,0,216)"
       id="g7542"><path
         inkscape:connector-curvature="0"
         id="path7544"
         style="fill:none;stroke:#000000;stroke-width:0.5;stroke-linecap:butt;stroke-linejoin:miter;stroke-miterlimit:3.79999995;stroke-dasharray:0.2, 2;stroke-dashoffset:0;stroke-opacity:1"
         d="m 76.551,14.449 0,-3.699" /></g><g
       transform="matrix(1,0,0,-1,0,216)"
       id="g7546"><path
         inkscape:connector-curvature="0"
         id="path7548"
         style="fill:none;stroke:#000000;stroke-width:0.5;stroke-linecap:butt;stroke-linejoin:miter;stroke-miterlimit:3.79999995;stroke-dasharray:none;stroke-opacity:1"
         d="m 76.551,186.75 0,-3.699" /></g><g
       transform="matrix(1,0,0,-1,0,216)"
       id="g7550"><path
         inkscape:connector-curvature="0"
         id="path7552"
         style="fill:none;stroke:#000000;stroke-width:0.5;stroke-linecap:butt;stroke-linejoin:miter;stroke-miterlimit:3.79999995;stroke-dasharray:none;stroke-opacity:1"
         d="m 76.551,10.75 0,3.699" /></g><text
       id="text7554"
       style="font-variant:normal;font-weight:normal;font-size:8px;font-family:'DejaVu Sans';-inkscape-font-specification:DejaVuSans;writing-mode:lr-tb;fill:#000000;fill-opacity:1;fill-rule:nonzero;stroke:none"
       transform="scale(1,-1)"
       x="75.243034"
       y="-16.949219"><tspan
         id="tspan7556"
         y="-16.949219"
         x="75.243034">1</tspan></text>
<g
       transform="matrix(1,0,0,-1,0,216)"
       id="g7558"><path
         inkscape:connector-curvature="0"
         id="path7560"
         style="fill:none;stroke:#000000;stroke-width:0.5;stroke-linecap:butt;stroke-linejoin:miter;stroke-miterlimit:3.79999995;stroke-dasharray:0.2, 2;stroke-dashoffset:0;stroke-opacity:1"
         d="m 110.102,186.75 0,-153.699" /></g><g
       transform="matrix(1,0,0,-1,0,216)"
       id="g7562"><path
         inkscape:connector-curvature="0"
         id="path7564"
         style="fill:none;stroke:#000000;stroke-width:0.5;stroke-linecap:butt;stroke-linejoin:miter;stroke-miterlimit:3.79999995;stroke-dasharray:0.2, 2;stroke-dashoffset:0;stroke-opacity:1"
         d="m 110.102,14.449 0,-3.699" /></g><g
       transform="matrix(1,0,0,-1,0,216)"
       id="g7566"><path
         inkscape:connector-curvature="0"
         id="path7568"
         style="fill:none;stroke:#000000;stroke-width:0.5;stroke-linecap:butt;stroke-linejoin:miter;stroke-miterlimit:3.79999995;stroke-dasharray:none;stroke-opacity:1"
         d="m 110.102,186.75 0,-3.699" /></g><g
       transform="matrix(1,0,0,-1,0,216)"
       id="g7570"><path
         inkscape:connector-curvature="0"
         id="path7572"
         style="fill:none;stroke:#000000;stroke-width:0.5;stroke-linecap:butt;stroke-linejoin:miter;stroke-miterlimit:3.79999995;stroke-dasharray:none;stroke-opacity:1"
         d="m 110.102,10.75 0,3.699" /></g><text
       id="text7574"
       style="font-variant:normal;font-weight:normal;font-size:8px;font-family:'DejaVu Sans';-inkscape-font-specification:DejaVuSans;writing-mode:lr-tb;fill:#000000;fill-opacity:1;fill-rule:nonzero;stroke:none"
       transform="scale(1,-1)"
       x="108.79381"
       y="-16.949219"><tspan
         id="tspan7576"
         y="-16.949219"
         x="108.79381">2</tspan></text>
<g
       transform="matrix(1,0,0,-1,0,216)"
       id="g7578"><path
         inkscape:connector-curvature="0"
         id="path7580"
         style="fill:none;stroke:#000000;stroke-width:0.5;stroke-linecap:butt;stroke-linejoin:miter;stroke-miterlimit:3.79999995;stroke-dasharray:0.2, 2;stroke-dashoffset:0;stroke-opacity:1"
         d="m 143.699,186.75 0,-176" /></g><g
       transform="matrix(1,0,0,-1,0,216)"
       id="g7582"><path
         inkscape:connector-curvature="0"
         id="path7584"
         style="fill:none;stroke:#000000;stroke-width:0.5;stroke-linecap:butt;stroke-linejoin:miter;stroke-miterlimit:3.79999995;stroke-dasharray:none;stroke-opacity:1"
         d="m 143.699,186.75 0,-3.699" /></g><g
       transform="matrix(1,0,0,-1,0,216)"
       id="g7586"><path
         inkscape:connector-curvature="0"
         id="path7588"
         style="fill:none;stroke:#000000;stroke-width:0.5;stroke-linecap:butt;stroke-linejoin:miter;stroke-miterlimit:3.79999995;stroke-dasharray:none;stroke-opacity:1"
         d="m 143.699,10.75 0,3.699" /></g><text
       id="text7590"
       style="font-variant:normal;font-weight:normal;font-size:8px;font-family:'DejaVu Sans';-inkscape-font-specification:DejaVuSans;writing-mode:lr-tb;fill:#000000;fill-opacity:1;fill-rule:nonzero;stroke:none"
       transform="scale(1,-1)"
       x="142.39537"
       y="-16.949219"><tspan
         id="tspan7592"
         y="-16.949219"
         x="142.39537">3</tspan></text>
<g
       transform="matrix(1,0,0,-1,0,216)"
       id="g7594"><path
         inkscape:connector-curvature="0"
         id="path7596"
         style="fill:none;stroke:#000000;stroke-width:0.5;stroke-linecap:butt;stroke-linejoin:miter;stroke-miterlimit:3.79999995;stroke-dasharray:0.2, 2;stroke-dashoffset:0;stroke-opacity:1"
         d="m 177.25,186.75 0,-176" /></g><g
       transform="matrix(1,0,0,-1,0,216)"
       id="g7598"><path
         inkscape:connector-curvature="0"
         id="path7600"
         style="fill:none;stroke:#000000;stroke-width:0.5;stroke-linecap:butt;stroke-linejoin:miter;stroke-miterlimit:3.79999995;stroke-dasharray:none;stroke-opacity:1"
         d="m 177.25,186.75 0,-3.699" /></g><g
       transform="matrix(1,0,0,-1,0,216)"
       id="g7602"><path
         inkscape:connector-curvature="0"
         id="path7604"
         style="fill:none;stroke:#000000;stroke-width:0.5;stroke-linecap:butt;stroke-linejoin:miter;stroke-miterlimit:3.79999995;stroke-dasharray:none;stroke-opacity:1"
         d="m 177.25,10.75 0,3.699" /></g><text
       id="text7606"
       style="font-variant:normal;font-weight:normal;font-size:8px;font-family:'DejaVu Sans';-inkscape-font-specification:DejaVuSans;writing-mode:lr-tb;fill:#000000;fill-opacity:1;fill-rule:nonzero;stroke:none"
       transform="scale(1,-1)"
       x="175.94617"
       y="-16.949219"><tspan
         id="tspan7608"
         y="-16.949219"
         x="175.94617">4</tspan></text>
<g
       transform="matrix(1,0,0,-1,0,216)"
       id="g7610"><path
         inkscape:connector-curvature="0"
         id="path7612"
         style="fill:none;stroke:#000000;stroke-width:0.5;stroke-linecap:butt;stroke-linejoin:miter;stroke-miterlimit:3.79999995;stroke-dasharray:0.2, 2;stroke-dashoffset:0;stroke-opacity:1"
         d="m 210.852,186.75 0,-176" /></g><g
       transform="matrix(1,0,0,-1,0,216)"
       id="g7614"><path
         inkscape:connector-curvature="0"
         id="path7616"
         style="fill:none;stroke:#000000;stroke-width:0.5;stroke-linecap:butt;stroke-linejoin:miter;stroke-miterlimit:3.79999995;stroke-dasharray:none;stroke-opacity:1"
         d="m 210.852,186.75 0,-3.699" /></g><g
       transform="matrix(1,0,0,-1,0,216)"
       id="g7618"><path
         inkscape:connector-curvature="0"
         id="path7620"
         style="fill:none;stroke:#000000;stroke-width:0.5;stroke-linecap:butt;stroke-linejoin:miter;stroke-miterlimit:3.79999995;stroke-dasharray:none;stroke-opacity:1"
         d="m 210.852,10.75 0,3.699" /></g><text
       id="text7622"
       style="font-variant:normal;font-weight:normal;font-size:8px;font-family:'DejaVu Sans';-inkscape-font-specification:DejaVuSans;writing-mode:lr-tb;fill:#000000;fill-opacity:1;fill-rule:nonzero;stroke:none"
       transform="scale(1,-1)"
       x="209.54381"
       y="-16.949219"><tspan
         id="tspan7624"
         y="-16.949219"
         x="209.54381">5</tspan></text>
<g
       transform="matrix(1,0,0,-1,0,216)"
       id="g7626"><path
         inkscape:connector-curvature="0"
         id="path7628"
         style="fill:none;stroke:#000000;stroke-width:0.5;stroke-linecap:butt;stroke-linejoin:miter;stroke-miterlimit:3.79999995;stroke-dasharray:0.2, 2;stroke-dashoffset:0;stroke-opacity:1"
         d="m 244.398,186.75 0,-176" /></g><g
       transform="matrix(1,0,0,-1,0,216)"
       id="g7630"><path
         inkscape:connector-curvature="0"
         id="path7632"
         style="fill:none;stroke:#000000;stroke-width:0.5;stroke-linecap:butt;stroke-linejoin:miter;stroke-miterlimit:3.79999995;stroke-dasharray:none;stroke-opacity:1"
         d="m 244.398,186.75 0,-3.699" /></g><g
       transform="matrix(1,0,0,-1,0,216)"
       id="g7634"><path
         inkscape:connector-curvature="0"
         id="path7636"
         style="fill:none;stroke:#000000;stroke-width:0.5;stroke-linecap:butt;stroke-linejoin:miter;stroke-miterlimit:3.79999995;stroke-dasharray:none;stroke-opacity:1"
         d="m 244.398,10.75 0,3.699" /></g><text
       id="text7638"
       style="font-variant:normal;font-weight:normal;font-size:8px;font-family:'DejaVu Sans';-inkscape-font-specification:DejaVuSans;writing-mode:lr-tb;fill:#000000;fill-opacity:1;fill-rule:nonzero;stroke:none"
       transform="scale(1,-1)"
       x="243.09459"
       y="-16.949219"><tspan
         id="tspan7640"
         y="-16.949219"
         x="243.09459">6</tspan></text>
<g
       transform="matrix(1,0,0,-1,0,216)"
       id="g7642"><path
         inkscape:connector-curvature="0"
         id="path7644"
         style="fill:none;stroke:#000000;stroke-width:0.5;stroke-linecap:butt;stroke-linejoin:miter;stroke-miterlimit:3.79999995;stroke-dasharray:0.2, 2;stroke-dashoffset:0;stroke-opacity:1"
         d="m 278,186.75 0,-176" /></g><g
       transform="matrix(1,0,0,-1,0,216)"
       id="g7646"><path
         inkscape:connector-curvature="0"
         id="path7648"
         style="fill:none;stroke:#000000;stroke-width:0.5;stroke-linecap:butt;stroke-linejoin:miter;stroke-miterlimit:3.79999995;stroke-dasharray:none;stroke-opacity:1"
         d="m 278,186.75 0,-3.699" /></g><g
       transform="matrix(1,0,0,-1,0,216)"
       id="g7650"><path
         inkscape:connector-curvature="0"
         id="path7652"
         style="fill:none;stroke:#000000;stroke-width:0.5;stroke-linecap:butt;stroke-linejoin:miter;stroke-miterlimit:3.79999995;stroke-dasharray:none;stroke-opacity:1"
         d="m 278,10.75 0,3.699" /></g><text
       id="text7654"
       style="font-variant:normal;font-weight:normal;font-size:8px;font-family:'DejaVu Sans';-inkscape-font-specification:DejaVuSans;writing-mode:lr-tb;fill:#000000;fill-opacity:1;fill-rule:nonzero;stroke:none"
       transform="scale(1,-1)"
       x="276.69617"
       y="-16.949219"><tspan
         id="tspan7656"
         y="-16.949219"
         x="276.69617">7</tspan></text>
<g
       transform="matrix(1,0,0,-1,0,216)"
       id="g7658"><path
         inkscape:connector-curvature="0"
         id="path7660"
         style="fill:none;stroke:#000000;stroke-width:0.5;stroke-linecap:butt;stroke-linejoin:miter;stroke-miterlimit:3.79999995;stroke-dasharray:0.2, 2;stroke-dashoffset:0;stroke-opacity:1"
         d="m 311.551,186.75 0,-176" /></g><g
       transform="matrix(1,0,0,-1,0,216)"
       id="g7662"><path
         inkscape:connector-curvature="0"
         id="path7664"
         style="fill:none;stroke:#000000;stroke-width:0.5;stroke-linecap:butt;stroke-linejoin:miter;stroke-miterlimit:3.79999995;stroke-dasharray:none;stroke-opacity:1"
         d="m 311.551,186.75 0,-3.699" /></g><g
       transform="matrix(1,0,0,-1,0,216)"
       id="g7666"><path
         inkscape:connector-curvature="0"
         id="path7668"
         style="fill:none;stroke:#000000;stroke-width:0.5;stroke-linecap:butt;stroke-linejoin:miter;stroke-miterlimit:3.79999995;stroke-dasharray:none;stroke-opacity:1"
         d="m 311.551,10.75 0,3.699" /></g><text
       id="text7670"
       style="font-variant:normal;font-weight:normal;font-size:8px;font-family:'DejaVu Sans';-inkscape-font-specification:DejaVuSans;writing-mode:lr-tb;fill:#000000;fill-opacity:1;fill-rule:nonzero;stroke:none"
       transform="scale(1,-1)"
       x="310.24304"
       y="-16.949219"><tspan
         id="tspan7672"
         y="-16.949219"
         x="310.24304">8</tspan></text>
<g
       transform="matrix(1,0,0,-1,0,216)"
       id="g7674"><path
         inkscape:connector-curvature="0"
         id="path7676"
         style="fill:none;stroke:#000000;stroke-width:0.5;stroke-linecap:butt;stroke-linejoin:miter;stroke-miterlimit:3.79999995;stroke-dasharray:0.2, 2;stroke-dashoffset:0;stroke-opacity:1"
         d="m 345.148,186.75 0,-176" /></g><g
       transform="matrix(1,0,0,-1,0,216)"
       id="g7678"><path
         inkscape:connector-curvature="0"
         id="path7680"
         style="fill:none;stroke:#000000;stroke-width:0.5;stroke-linecap:butt;stroke-linejoin:miter;stroke-miterlimit:3.79999995;stroke-dasharray:none;stroke-opacity:1"
         d="m 345.148,186.75 0,-3.699" /></g><g
       transform="matrix(1,0,0,-1,0,216)"
       id="g7682"><path
         inkscape:connector-curvature="0"
         id="path7684"
         style="fill:none;stroke:#000000;stroke-width:0.5;stroke-linecap:butt;stroke-linejoin:miter;stroke-miterlimit:3.79999995;stroke-dasharray:none;stroke-opacity:1"
         d="m 345.148,10.75 0,3.699" /></g><text
       id="text7686"
       style="font-variant:normal;font-weight:normal;font-size:8px;font-family:'DejaVu Sans';-inkscape-font-specification:DejaVuSans;writing-mode:lr-tb;fill:#000000;fill-opacity:1;fill-rule:nonzero;stroke:none"
       transform="scale(1,-1)"
       x="343.8446"
       y="-16.949219"><tspan
         id="tspan7688"
         y="-16.949219"
         x="343.8446">9</tspan></text>
<g
       transform="matrix(1,0,0,-1,0,216)"
       id="g7690"><path
         inkscape:connector-curvature="0"
         id="path7692"
         style="fill:none;stroke:#000000;stroke-width:0.5;stroke-linecap:butt;stroke-linejoin:miter;stroke-miterlimit:3.79999995;stroke-dasharray:none;stroke-opacity:1"
         d="m 42.949,10.75 302.199,0 0,176 -302.199,0 0,-176 z" /></g><text
       id="text7694"
       style="font-variant:normal;font-weight:normal;font-size:8px;font-family:'DejaVu Sans';-inkscape-font-specification:DejaVuSans;writing-mode:lr-tb;fill:#000000;fill-opacity:1;fill-rule:nonzero;stroke:none"
       transform="matrix(0,1,1,0,0,0)"
       x="89.476563"
       y="10.699219"><tspan
         id="tspan7696"
         sodipodi:role="line"
         y="10.699219"
         x="89.476563 94.524559 99.588562 102.72456 105.83656 110.72456 115.79656 120.52456 123.06056 127.90856 132.80457 135.02055 140.08456">Entropy Value</tspan></text>
<text
       id="text7698"
       style="font-variant:normal;font-weight:normal;font-size:8px;font-family:'DejaVu Sans';-inkscape-font-specification:DejaVuSans;writing-mode:lr-tb;fill:#000000;fill-opacity:1;fill-rule:nonzero;stroke:none"
       transform="scale(1,-1)"
       x="177.54297"
       y="-3"><tspan
         id="tspan7700"
         sodipodi:role="line"
         y="-3"
         x="177.54297" /><tspan
         id="tspan7702"
         sodipodi:role="line"
         y="-193.89844"
         x="65.957031 72.853035 77.773033 80.91703 85.989037 90.909035">Merged</tspan></text>
<g
       transform="matrix(1,0,0,-1,-12.8,216)"
       id="g7704"><path
         inkscape:connector-curvature="0"
         id="path7706"
         style="fill:none;stroke:#a0a0a0;stroke-width:2;stroke-linecap:butt;stroke-linejoin:miter;stroke-miterlimit:3.79999995;stroke-dasharray:none;stroke-opacity:1"
         d="m 114.352,19.102 24.097,0" /></g><g
       transform="matrix(1,0,0,-1,0,216)"
       id="g7708"><path
         inkscape:connector-curvature="0"
         id="path7710"
         style="fill:none;stroke:#a0a0a0;stroke-width:2;stroke-linecap:butt;stroke-linejoin:miter;stroke-miterlimit:3.79999995;stroke-dasharray:none;stroke-opacity:1"
         d="m 42.949,90.699 33.602,0 0,-2.898 33.551,0 0,87 33.597,0 0,-159.852 33.551,0 0,75.75 33.602,0 0,-49.648 33.546,0 0,49.648 33.602,0 0,-19.148 33.551,0 0,19.148 33.597,0" /></g><text
       id="text7712"
       style="font-variant:normal;font-weight:normal;font-size:8px;font-family:'DejaVu Sans';-inkscape-font-specification:DejaVuSans;writing-mode:lr-tb;fill:#000000;fill-opacity:1;fill-rule:nonzero;stroke:none"
       transform="scale(1,-1)"
       x="55.285156"
       y="-184.59766"><tspan
         id="tspan7714"
         sodipodi:role="line"
         y="-184.59766"
         x="55.285156 60.869156 65.765152 68.901154 73.797157 76.013153 80.901154 85.973152 90.893158 95.965157">Cataloged </tspan></text>
<g
       transform="matrix(1,0,0,-1,-12.8,216)"
       id="g7716"><path
         inkscape:connector-curvature="0"
         id="path7718"
         style="fill:none;stroke:#000000;stroke-width:2;stroke-linecap:butt;stroke-linejoin:miter;stroke-miterlimit:3.79999995;stroke-dasharray:none;stroke-opacity:1"
         d="m 114.352,28.398 24.097,0" /></g><g
       transform="matrix(1,0,0,-1,0,216)"
       id="g7720"><path
         inkscape:connector-curvature="0"
         id="path7722"
         style="fill:none;stroke:#000000;stroke-width:2;stroke-linecap:butt;stroke-linejoin:miter;stroke-miterlimit:3.79999995;stroke-dasharray:none;stroke-opacity:1"
         d="m 42.949,90.699 302.199,0" /></g><g
       transform="matrix(1,0,0,-1,0,216)"
       id="g7732"><path
         inkscape:connector-curvature="0"
         id="path7734"
         style="fill:none;stroke:#000000;stroke-width:2;stroke-linecap:butt;stroke-linejoin:miter;stroke-miterlimit:3.79999995;stroke-dasharray:none;stroke-opacity:1"
         d="m 73.551,84.801 6,6" /></g><g
       transform="matrix(1,0,0,-1,0,216)"
       id="g7736"><path
         inkscape:connector-curvature="0"
         id="path7738"
         style="fill:none;stroke:#000000;stroke-width:2;stroke-linecap:butt;stroke-linejoin:miter;stroke-miterlimit:3.79999995;stroke-dasharray:none;stroke-opacity:1"
         d="m 73.551,90.801 6,-6" /></g><g
       transform="matrix(1,0,0,-1,0,216)"
       id="g7740"><path
         inkscape:connector-curvature="0"
         id="path7742"
         style="fill:none;stroke:#000000;stroke-width:2;stroke-linecap:butt;stroke-linejoin:miter;stroke-miterlimit:3.79999995;stroke-dasharray:none;stroke-opacity:1"
         d="m 107.102,171.801 6,6" /></g><g
       transform="matrix(1,0,0,-1,0,216)"
       id="g7744"><path
         inkscape:connector-curvature="0"
         id="path7746"
         style="fill:none;stroke:#000000;stroke-width:2;stroke-linecap:butt;stroke-linejoin:miter;stroke-miterlimit:3.79999995;stroke-dasharray:none;stroke-opacity:1"
         d="m 107.102,177.801 6,-6" /></g><g
       transform="matrix(1,0,0,-1,0,216)"
       id="g7748"><path
         inkscape:connector-curvature="0"
         id="path7750"
         style="fill:none;stroke:#000000;stroke-width:2;stroke-linecap:butt;stroke-linejoin:miter;stroke-miterlimit:3.79999995;stroke-dasharray:none;stroke-opacity:1"
         d="m 140.699,11.949 6,6" /></g><g
       transform="matrix(1,0,0,-1,0,216)"
       id="g7752"><path
         inkscape:connector-curvature="0"
         id="path7754"
         style="fill:none;stroke:#000000;stroke-width:2;stroke-linecap:butt;stroke-linejoin:miter;stroke-miterlimit:3.79999995;stroke-dasharray:none;stroke-opacity:1"
         d="m 140.699,17.949 6,-6" /></g><g
       transform="matrix(1,0,0,-1,0,216)"
       id="g7764"><path
         inkscape:connector-curvature="0"
         id="path7766"
         style="fill:none;stroke:#000000;stroke-width:2;stroke-linecap:butt;stroke-linejoin:miter;stroke-miterlimit:3.79999995;stroke-dasharray:none;stroke-opacity:1"
         d="m 207.852,38.051 6,6" /></g><g
       transform="matrix(1,0,0,-1,0,216)"
       id="g7768"><path
         inkscape:connector-curvature="0"
         id="path7770"
         style="fill:none;stroke:#000000;stroke-width:2;stroke-linecap:butt;stroke-linejoin:miter;stroke-miterlimit:3.79999995;stroke-dasharray:none;stroke-opacity:1"
         d="m 207.852,44.051 6,-6" /></g><g
       transform="matrix(1,0,0,-1,0,216)"
       id="g7780"><path
         inkscape:connector-curvature="0"
         id="path7782"
         style="fill:none;stroke:#000000;stroke-width:2;stroke-linecap:butt;stroke-linejoin:miter;stroke-miterlimit:3.79999995;stroke-dasharray:none;stroke-opacity:1"
         d="m 275,68.551 6,6" /></g><g
       transform="matrix(1,0,0,-1,0,216)"
       id="g7784"><path
         inkscape:connector-curvature="0"
         id="path7786"
         style="fill:none;stroke:#000000;stroke-width:2;stroke-linecap:butt;stroke-linejoin:miter;stroke-miterlimit:3.79999995;stroke-dasharray:none;stroke-opacity:1"
         d="m 275,74.551 6,-6" /></g><g
       transform="matrix(1,0,0,-1,0,216)"
       id="g7804"><path
         inkscape:connector-curvature="0"
         id="path7806"
         style="fill:none;stroke:#000000;stroke-width:0.5;stroke-linecap:butt;stroke-linejoin:miter;stroke-miterlimit:3.79999995;stroke-dasharray:none;stroke-opacity:1"
         d="m 42.949,10.75 302.199,0 0,176 -302.199,0 0,-176 z" /></g><text
       id="text6431"
       style="font-variant:normal;font-weight:normal;font-size:8px;font-family:'DejaVu Sans';-inkscape-font-specification:DejaVuSans;writing-mode:lr-tb;fill:#000000;fill-opacity:1;fill-rule:nonzero;stroke:none"
       x="177.60466"
       y="-3.0999668"
       transform="scale(1,-1)"><tspan
         id="tspan6433"
         sodipodi:role="line"
         y="-3.0999668"
         x="177.60466 183.07666 188.14066 193.03667 195.25266 199.98067 204.14066 206.35666">Analysis</tspan><tspan
         id="tspan6435"
         sodipodi:role="line"
         y="0"
         x="177.60466" /></text>
</g></svg>